<svg width="96" height="29" fill="none" xmlns="http://www.w3.org/2000/svg"><path fill-rule="evenodd" clip-rule="evenodd" d="M62.275 14.016c2.865-1.79 2.2-5.587.33-7.07-1.622-1.286-2.93-1.279-8.085-1.252-.829.004-1.757.009-2.802.009a.58.58 0 00-.582.577v6.917c-.393 0-.719-.002-.99-.004-1.231-.009-1.332-.01-1.516.243-.1.138-.19.258-.271.366-.426.567-.571.762-.4 1.093.171.333.296.332 1.883.32.356-.002.785-.005 1.305-.005v7.557c0 .319.26.578.582.578 6.303.005 7.251.002 8.412-.17 2.762-.407 4.49-2.174 4.62-4.727.138-2.649-1.442-3.722-2.292-4.299l-.194-.133zm-6.562-.817c-.661-.003-1.435-.006-2.348-.006V7.78c.191-.03 4.05-.024 5.35.006a5.791 5.791 0 011.648.302c1.028.34 1.592 1.097 1.63 2.188.042 1.196-.439 2.03-1.43 2.477-1.02.461-1.359.46-4.85.446zm-2.35 2.004v6.081l.069.008c.093.01.187.006 1.38.008l1.186.005c2.836.014 3.765.019 4.859-.47 1.17-.525 1.775-1.548 1.702-2.88-.159-2.878-3.216-2.832-7.291-2.771-.614.01-1.251.019-1.905.019zm13.181-5.522c3.371-6.428 13.536-5.776 15.495 1.883 1.447 5.653-1.19 11.781-7.657 12.145-7.896.447-10.84-8.304-7.838-14.028zm2.539.113c-2.844 3.787-1.575 11.841 4.86 11.841 4.708 0 7.01-4.596 6.007-9.175-1.273-5.816-7.966-6.528-10.867-2.666z" fill="#8DD83D"/><path d="M89.737 14.113c5.99-8.057 5.829-7.64 5.607-8.076-.206-.405-.546-.317-1.688-.317-.406 0-.076-.295-5.243 6.656-5.15-6.92-4.83-6.643-5.237-6.643-1.147 0-1.484-.085-1.689.318a.57.57 0 00.051.603l5.549 7.46c-6.636 8.963-6.414 8.461-6.191 8.898.206.402.543.316 1.691.316.185 0 .36-.087.47-.235l5.355-7.201 5.35 7.188c.225.3.445.235 1.64.235.22 0 .42-.123.52-.317.224-.44.417.03-6.184-8.885zm-46.047 0c5.97-8.025 5.831-7.636 5.608-8.075a.583.583 0 00-.52-.317c-1.21 0-1.416-.061-1.636.235l-4.779 6.422C37.218 5.453 37.537 5.73 37.13 5.73c-1.156 0-1.48-.082-1.683.317a.574.574 0 00.051.603l5.547 7.463c-6.64 8.96-6.417 8.458-6.194 8.895.206.403.54.317 1.694.317.406 0 .011.378 5.822-7.432 5.815 7.814 5.42 7.432 5.825 7.432h1.177a.578.578 0 00.431-.966l-6.11-8.246zM8.785 2.26c1.528.185 3.41.863 5.595 2.016a.48.48 0 00.45-.001c2.154-1.153 4.024-1.835 5.559-2.028.47-.059.573-.696.14-.895-3.701-1.705-7.951-1.816-11.888.012a.47.47 0 00.144.895zm15.757 21.545c-.025-.182-.719-4.534-9.681-11.88a.479.479 0 00-.6-.005C6.367 18.169 3.554 24.146 4.844 25.247c3.048 2.608 5.965 3.72 9.753 3.72 4.116 0 6.725-1.37 9.601-3.58.555-.426.354-1.528.348-1.559l-.004-.023zm.077-19.606c-1.606-.256-4.637 2.447-5.812 3.578a.469.469 0 00-.04.633c5.777 7.162 7.238 11.251 7.447 13.42a.478.478 0 00.879.202 14.28 14.28 0 002.125-7.52c0-5.897-4.069-10.229-4.6-10.313zM10.402 7.777C7.037 4.535 5.356 4.185 4.788 4.185c-.07 0-.136.005-.197.014a.477.477 0 00-.26.13c-4.7 4.62-5.785 11.932-2.214 17.704a.477.477 0 00.88-.202c.208-2.17 1.669-6.259 7.446-13.42a.469.469 0 00-.04-.634z" fill="#8DD83D"/></svg>